<svg width="30" height="33" viewBox="0 0 30 33" fill="none" xmlns="http://www.w3.org/2000/svg">
<path fill-rule="evenodd" clip-rule="evenodd" d="M0 28.2703C0.549788 21.0493 2.71907 22.4909 8.7928 18.6361C9.75254 21.1641 12.6623 22.3407 15.3051 22.0003C15.0381 22.5883 14.8405 23.204 14.7165 23.8346C14.4318 25.2871 14.5322 26.8229 15.0572 28.2703H0ZM22.6735 19.1448C23.4882 19.1444 24.295 19.307 25.0476 19.6233C25.8003 19.9396 26.484 20.4034 27.0597 20.9881C28.6691 22.6199 29.2672 25.026 28.6195 27.2355C28.4706 27.7429 28.2587 28.2291 27.989 28.6823L29.9218 30.8621C29.9482 30.8912 29.9686 30.9253 29.9819 30.9624C29.9953 30.9995 30.0013 31.0389 29.9997 31.0783C29.998 31.1178 29.9887 31.1565 29.9723 31.1923C29.9559 31.2281 29.9327 31.2603 29.904 31.287L28.1403 32.9214C28.1116 32.9481 28.078 32.9688 28.0415 32.9823C28.005 32.9958 27.9662 33.0018 27.9273 33.0001C27.8885 32.9983 27.8503 32.9888 27.8151 32.9721C27.7799 32.9554 27.7483 32.9319 27.722 32.9027L25.8934 30.8151C24.9203 31.4166 23.8131 31.73 22.6735 31.73C21.8589 31.7303 21.0522 31.5678 20.2996 31.2516C19.5469 30.9354 18.8631 30.4718 18.2873 29.8873C17.7106 29.3023 17.2532 28.6078 16.9411 27.8435C15.9795 25.4947 16.5261 22.7753 18.2879 20.9887C18.8637 20.4033 19.5477 19.939 20.3008 19.6225C21.0324 19.3143 21.8345 19.1448 22.6735 19.1448ZM26.1731 21.8868C24.7608 20.4542 22.6195 20.0229 20.7801 20.7959C17.4782 22.1828 16.7199 26.5012 19.1727 28.9873C20.5875 30.4192 22.7244 30.8518 24.5663 30.0788C25.4714 29.6987 26.2449 29.0546 26.7889 28.2283C27.3329 27.4019 27.6229 26.4304 27.6222 25.4367C27.6222 24.7552 27.4894 24.1066 27.2492 23.5174C26.9991 22.9077 26.6335 22.3537 26.1731 21.8868ZM10.5756 18.3505C10.5102 18.2325 10.7816 17.4852 10.8508 17.3673C10.0576 16.651 9.4303 15.9282 9.29682 14.4415L9.21165 14.4427C9.01525 14.4402 8.82585 14.3944 8.64852 14.2919C8.36377 14.1281 8.1642 13.8464 8.02945 13.5292C7.74343 12.8631 7.51716 11.3287 8.23665 10.8277L8.10127 10.7368L8.08602 10.5434C8.05869 10.1907 8.05169 9.76392 8.0447 9.31648C8.01864 7.66918 7.98559 6.32685 6.68008 5.92583L6.11949 5.75433L6.48877 5.29141C7.54386 3.96842 8.64598 2.81177 9.75763 1.92397C11.0155 0.919479 12.2936 0.250891 13.5445 0.0581161C14.8303 -0.139817 16.0767 0.159339 17.2271 1.10323C17.5665 1.38175 17.8964 1.71637 18.2148 2.10837C19.4422 2.22893 20.4458 2.9001 21.1627 3.85688C21.5905 4.42876 21.9153 5.10444 22.1225 5.82267C22.3284 6.53768 22.418 7.29975 22.3799 8.04958C22.3106 9.39255 21.8263 10.0502 20.8506 11.007C21.0222 11.0128 21.1837 11.0534 21.3267 11.1308C21.8708 11.426 21.8886 12.0676 21.7456 12.6059C21.6045 13.0559 21.4246 13.3602 21.2549 13.798C21.0489 14.3899 20.7477 14.5001 20.1661 14.4363C20.1362 15.8992 19.4695 16.6174 18.5727 17.4769L18.7748 18.1964L18.7672 18.2293C18.5612 18.344 18.361 18.4672 18.1672 18.5987C17.7254 18.8985 17.3155 19.2402 16.9424 19.618L16.936 19.6251C16.745 19.8187 16.5638 20.022 16.3932 20.2344C14.3479 20.7598 11.5951 20.1944 10.5756 18.3505Z" fill="white"/>
</svg>
