<svg width="33" height="35" viewBox="0 0 33 35" fill="none" xmlns="http://www.w3.org/2000/svg">
<path d="M29.8276 22.8605H32.0477C32.161 22.8595 32.2736 22.8788 32.3802 22.9175C32.5105 22.962 32.6291 23.036 32.7267 23.1339C32.8245 23.2314 32.8987 23.3503 32.9437 23.4814C32.9801 23.5897 32.9991 23.7032 33 23.8175V28.3463C33.0007 28.4262 32.9902 28.5058 32.969 28.5828L32.9521 28.6483C32.909 28.7758 32.8377 28.8917 32.7436 28.9872C32.6767 29.0558 32.5998 29.1134 32.5154 29.1581C32.3985 29.2184 32.2691 29.2496 32.1379 29.2493H29.8276V29.6224C29.8224 31.0508 29.2589 32.4192 28.2598 33.4292C27.2607 34.4392 25.9072 35.009 24.4943 35.0142H5.33612C3.92275 35.0097 2.5685 34.4403 1.56883 33.4302C0.569156 32.4201 0.00520016 31.0513 1.23456e-10 29.6224L1.23456e-10 5.41178C-9.61192e-06 3.97994 0.56126 2.60644 1.56089 1.59211C2.56051 0.577772 3.91701 0.00527522 5.33331 0L24.4915 0C25.9044 0.00525286 27.2579 0.575007 28.257 1.58504C29.256 2.59507 29.8196 3.96346 29.8248 5.39185V5.91308H32.0449C32.1852 5.91203 32.3239 5.9432 32.4506 6.00423C32.5881 6.06808 32.7073 6.16607 32.7971 6.28906C32.8651 6.37921 32.9175 6.48033 32.9521 6.58813C32.9854 6.69016 33.0025 6.79687 33.0028 6.9043V11.4331C33.0024 11.5306 32.9843 11.6271 32.9493 11.7179C32.9366 11.7577 32.9196 11.7959 32.8986 11.8319C32.8431 11.9354 32.7674 12.0265 32.676 12.0996C32.6265 12.1384 32.5737 12.1727 32.5182 12.2021C32.4024 12.2629 32.274 12.2951 32.1435 12.2961H29.8333V14.29H32.0534C32.1936 14.2897 32.3321 14.3208 32.4591 14.3811C32.5961 14.4457 32.7151 14.5435 32.8056 14.6659C32.8647 14.7429 32.9122 14.8284 32.9465 14.9194C32.9874 15.0277 33.0084 15.1425 33.0085 15.2584V19.8157C33.0077 19.9473 32.9768 20.0769 32.9183 20.1945C32.8753 20.2807 32.8193 20.3595 32.7521 20.4281C32.6847 20.4985 32.6055 20.5564 32.5182 20.599C32.4028 20.6577 32.2756 20.6889 32.1463 20.6901H29.8361V22.852L29.8276 22.8605ZM14.9152 7.82145C17.1317 7.81596 19.2814 8.58771 20.9981 10.0052C22.7148 11.4226 23.8921 13.3981 24.3295 15.5948C24.7668 17.7915 24.4371 20.0736 23.3965 22.0521C22.356 24.0307 20.6689 25.5831 18.623 26.445C16.577 27.3068 14.2987 27.4247 12.1764 26.7785C10.0541 26.1323 8.21908 24.7621 6.98415 22.9013C5.74923 21.0406 5.19079 18.8044 5.40402 16.574C5.61725 14.3436 6.58894 12.257 8.15351 10.6698C9.03944 9.76812 10.0929 9.05234 11.2533 8.56354C12.4136 8.07474 13.6581 7.82254 14.9152 7.82145ZM20.7359 11.6125C19.2578 10.1492 17.2889 9.30185 15.221 9.23915C13.153 9.17645 11.1375 9.90296 9.57524 11.2742C8.01299 12.6454 7.01848 14.5608 6.7895 16.6396C6.56052 18.7183 7.11385 20.808 8.33945 22.4931C9.32554 22.043 11.478 21.8579 12.4021 21.2085C12.4867 21.0689 12.5611 20.9232 12.6247 20.7727C12.7346 20.5135 12.8388 20.2315 12.9064 20.0407C12.6404 19.7087 12.3975 19.3585 12.1795 18.9925L11.4442 17.8076C11.2103 17.4917 11.0652 17.1177 11.0244 16.7253C11.0186 16.5921 11.0437 16.4595 11.0977 16.3379C11.1805 16.1592 11.3291 16.0202 11.5118 15.9505C11.4585 15.2417 11.4462 14.5303 11.4752 13.82C11.493 13.6574 11.5231 13.4965 11.5654 13.3386C11.7705 12.6671 12.2141 12.0959 12.8106 11.735C13.1329 11.5272 13.4843 11.3697 13.8531 11.2679C14.0869 11.1995 13.653 10.4447 13.8953 10.4134C15.0645 10.2938 16.9578 11.3733 17.7749 12.2648C18.2181 12.77 18.4731 13.4157 18.4961 14.0906L18.451 16.0246C18.5463 16.0489 18.6329 16.0997 18.7011 16.1711C18.7693 16.2426 18.8164 16.3319 18.837 16.429C18.8776 16.7811 18.8065 17.1372 18.6342 17.4459V17.4715L17.789 18.87C17.5028 19.3847 17.1566 19.8629 16.7578 20.2942L16.8705 20.4565C17.0366 20.7115 17.2252 20.9508 17.434 21.1715C17.442 21.1777 17.4487 21.1854 17.4537 21.1943C18.3693 21.8494 20.5303 22.0487 21.522 22.4845C22.7047 20.8792 23.2762 18.8969 23.1319 16.9005C22.9875 14.9041 22.137 13.027 20.7359 11.6125ZM24.4943 2.02799H5.33612C4.45477 2.03248 3.61073 2.38823 2.98725 3.01803C2.36377 3.64782 2.01116 4.50082 2.00598 5.39185V29.6025C2.01115 30.493 2.36337 31.3456 2.98625 31.9753C3.60912 32.605 4.45244 32.9611 5.33331 32.9663H24.4915C25.3695 32.9619 26.2106 32.6089 26.8335 31.9834C27.4564 31.3579 27.8113 30.5099 27.8217 29.6224V5.41178C27.8217 4.51779 27.4717 3.66012 26.8483 3.0261C26.2249 2.39209 25.3786 2.03326 24.4943 2.02799Z" fill="white"/>
</svg>
