<svg width="24" height="22" viewBox="0 0 24 22" fill="none" xmlns="http://www.w3.org/2000/svg">
<path fill-rule="evenodd" clip-rule="evenodd" d="M7.51754 0.066C8.7113 0.012 9.09192 0 12.1328 0C15.1737 0 15.5543 0.013 16.747 0.066C17.9398 0.119 18.754 0.306 19.4663 0.577C20.2123 0.854 20.8891 1.287 21.4488 1.847C22.0187 2.396 22.4584 3.06 22.7393 3.794C23.0161 4.494 23.2054 5.294 23.2603 6.464C23.3153 7.639 23.3275 8.013 23.3275 11C23.3275 13.988 23.3143 14.362 23.2603 15.535C23.2064 16.705 23.0161 17.505 22.7393 18.205C22.4584 18.9391 22.018 19.6042 21.4488 20.154C20.8891 20.714 20.2123 21.146 19.4663 21.422C18.754 21.694 17.9398 21.88 16.7491 21.934C15.5543 21.988 15.1737 22 12.1328 22C9.09192 22 8.7113 21.987 7.51754 21.934C6.32683 21.881 5.51267 21.694 4.80028 21.422C4.05321 21.146 3.37633 20.7133 2.81678 20.154C2.24726 19.6047 1.80653 18.9399 1.52532 18.206C1.24953 17.506 1.06023 16.706 1.00528 15.536C0.950323 14.361 0.93811 13.987 0.93811 11C0.93811 8.012 0.95134 7.638 1.00528 6.466C1.05922 5.294 1.24953 4.494 1.52532 3.794C1.80694 3.06008 2.24801 2.39531 2.8178 1.846C3.37656 1.2865 4.05275 0.853443 4.79926 0.577C5.51165 0.306 6.32581 0.12 7.51652 0.066H7.51754ZM16.6565 2.046C15.4759 1.993 15.1218 1.982 12.1328 1.982C9.14382 1.982 8.78966 1.993 7.60913 2.046C6.51714 2.095 5.92484 2.274 5.52997 2.425C5.00789 2.625 4.63439 2.862 4.24258 3.247C3.87117 3.60205 3.58533 4.03428 3.40603 4.512C3.25236 4.9 3.07019 5.482 3.02032 6.555C2.96638 7.715 2.95519 8.063 2.95519 11C2.95519 13.937 2.96638 14.285 3.02032 15.445C3.07019 16.518 3.25236 17.1 3.40603 17.488C3.58515 17.965 3.87112 18.398 4.24258 18.753C4.60386 19.118 5.04453 19.399 5.52997 19.575C5.92484 19.726 6.51714 19.905 7.60913 19.954C8.78966 20.007 9.1428 20.018 12.1328 20.018C15.1228 20.018 15.4759 20.007 16.6565 19.954C17.7485 19.905 18.3408 19.726 18.7356 19.575C19.2577 19.375 19.6312 19.138 20.023 18.753C20.3945 18.398 20.6805 17.965 20.8596 17.488C21.0132 17.1 21.1954 16.518 21.2453 15.445C21.2992 14.285 21.3104 13.937 21.3104 11C21.3104 8.063 21.2992 7.715 21.2453 6.555C21.1954 5.482 21.0132 4.9 20.8596 4.512C20.656 3.999 20.4148 3.632 20.023 3.247C19.6617 2.88207 19.2218 2.60121 18.7356 2.425C18.3408 2.274 17.7485 2.095 16.6565 2.046ZM10.7029 14.391C11.5015 14.7176 12.3907 14.7617 13.2186 14.5157C14.0466 14.2697 14.7619 13.7489 15.2425 13.0422C15.7231 12.3356 15.9391 11.4869 15.8536 10.6411C15.7681 9.79534 15.3864 9.00497 14.7737 8.405C14.3832 8.02148 13.9109 7.72781 13.391 7.54515C12.8711 7.36248 12.3164 7.29536 11.7669 7.34862C11.2174 7.40187 10.6868 7.57418 10.2132 7.85313C9.73964 8.13208 9.33489 8.51074 9.02811 8.96185C8.72133 9.41296 8.52016 9.92529 8.43908 10.462C8.35799 10.9986 8.39902 11.5463 8.55919 12.0655C8.71936 12.5847 8.99471 13.0626 9.36539 13.4647C9.73608 13.8668 10.1929 14.1832 10.7029 14.391ZM8.06404 7.002C8.59836 6.47697 9.23268 6.0605 9.9308 5.77636C10.6289 5.49222 11.3772 5.34597 12.1328 5.34597C12.8884 5.34597 13.6367 5.49222 14.3348 5.77636C15.0329 6.0605 15.6672 6.47697 16.2016 7.002C16.7359 7.52702 17.1597 8.15032 17.4489 8.8363C17.7381 9.52228 17.8869 10.2575 17.8869 11C17.8869 11.7425 17.7381 12.4777 17.4489 13.1637C17.1597 13.8497 16.7359 14.473 16.2016 14.998C15.1225 16.0583 13.6589 16.654 12.1328 16.654C10.6067 16.654 9.14314 16.0583 8.06404 14.998C6.98494 13.9377 6.3787 12.4995 6.3787 11C6.3787 9.50046 6.98494 8.06234 8.06404 7.002ZM19.1631 6.188C19.2955 6.06527 19.4015 5.91768 19.4748 5.75397C19.5481 5.59027 19.5873 5.41377 19.5899 5.23493C19.5926 5.05609 19.5587 4.87855 19.4902 4.71281C19.4218 4.54707 19.3202 4.39651 19.1915 4.27004C19.0628 4.14357 18.9096 4.04376 18.7409 3.97652C18.5722 3.90928 18.3916 3.87598 18.2096 3.87858C18.0275 3.88119 17.8479 3.91965 17.6813 3.9917C17.5147 4.06374 17.3645 4.1679 17.2396 4.298C16.9967 4.55103 16.8637 4.88712 16.8689 5.23493C16.874 5.58274 17.0169 5.91488 17.2673 6.16084C17.5176 6.40681 17.8556 6.54723 18.2096 6.5523C18.5635 6.55737 18.9056 6.42669 19.1631 6.188Z" fill="white"/>
</svg>
