<svg width="21" height="20" viewBox="0 0 21 20" fill="none" xmlns="http://www.w3.org/2000/svg">
<path fill-rule="evenodd" clip-rule="evenodd" d="M8.17999 6.969H11.9597V8.819C12.5042 7.755 13.9005 6.799 15.998 6.799C20.0189 6.799 20.9735 8.917 20.9735 12.803V20H16.9027V13.688C16.9027 11.475 16.3582 10.227 14.9721 10.227C13.0497 10.227 12.2508 11.572 12.2508 13.687V20H8.17999V6.969ZM1.1996 19.83H5.27039V6.799H1.1996V19.83ZM5.85353 2.55C5.85368 2.88528 5.78601 3.21724 5.65446 3.52659C5.5229 3.83594 5.33008 4.11651 5.08721 4.352C4.59505 4.83262 3.92887 5.10165 3.23499 5.1C2.54234 5.09954 1.8777 4.8312 1.38482 4.353C1.14282 4.11671 0.950652 3.83582 0.819326 3.52643C0.687999 3.21704 0.620096 2.88522 0.619507 2.55C0.619507 1.873 0.894286 1.225 1.38583 0.747C1.87828 0.268158 2.5432 -0.000299211 3.23601 2.50265e-07C3.93008 2.50265e-07 4.59566 0.269 5.08721 0.747C5.57774 1.225 5.85353 1.873 5.85353 2.55Z" fill="white"/>
</svg>
