<svg width="32" height="25" viewBox="0 0 32 25" fill="none" xmlns="http://www.w3.org/2000/svg">
<path d="M1.26042 6.9477H23.6354C23.8 6.94722 23.963 6.97868 24.115 7.04026C24.267 7.10184 24.4049 7.19231 24.5208 7.30641C24.7551 7.53624 24.887 7.84706 24.888 8.17137V23.7789C24.8885 23.9392 24.8562 24.0981 24.7932 24.2461C24.7301 24.3942 24.6376 24.5285 24.5208 24.6413C24.5016 24.6625 24.4797 24.6813 24.4557 24.6973C24.2284 24.8961 23.9328 25.0042 23.6276 25H1.25261C0.920849 25 0.602638 24.8714 0.367804 24.6425C0.13297 24.4136 0.000695258 24.103 5.52756e-06 23.7789V8.17137C-0.00048534 8.01062 0.0317215 7.85138 0.0947557 7.70289C0.15779 7.55441 0.250395 7.41964 0.367193 7.30641C0.602298 7.07736 0.920575 6.94842 1.25261 6.9477H1.26042ZM8.3724 5.39988e-06H30.7474C30.9119 -0.000474128 31.075 0.0309888 31.227 0.0925669C31.379 0.154145 31.5169 0.244611 31.6328 0.358711C31.867 0.588542 31.999 0.899365 32 1.22367V16.8312C32.0004 16.9915 31.9682 17.1504 31.9052 17.2985C31.8421 17.4465 31.7495 17.5808 31.6328 17.6936C31.6142 17.7154 31.5922 17.7343 31.5677 17.7496C31.3393 17.9545 31.0393 18.0665 30.7292 18.0625H29.3281V16.592H30.5026V1.45264H8.60938V2.52112H7.11198V1.22367C7.11149 1.06293 7.1437 0.903686 7.20673 0.7552C7.26977 0.606714 7.36237 0.471942 7.47917 0.358711C7.71444 0.129897 8.03261 0.000997058 8.36459 5.39988e-06H8.3724ZM4.81771 3.47512H27.1927C27.3569 3.4747 27.5195 3.5062 27.671 3.56778C27.8226 3.62937 27.9601 3.71981 28.0755 3.83383C28.3101 4.06241 28.4421 4.3726 28.4427 4.69625V20.3038C28.4432 20.4645 28.411 20.6237 28.348 20.7722C28.2849 20.9207 28.1923 21.0555 28.0755 21.1687C28.0562 21.1898 28.0343 21.2086 28.0104 21.2247C27.783 21.4235 27.4874 21.5316 27.1823 21.5274H25.7813V20.0672H26.9557V4.92776H5.05209V5.99624H3.55469V4.69625C3.55538 4.37215 3.68766 4.06156 3.92249 3.83263C4.15733 3.6037 4.47554 3.47512 4.8073 3.47512H4.81771ZM6.42709 11.1937C6.7827 11.1932 7.13046 11.2957 7.42636 11.4884C7.72225 11.6811 7.95296 11.9552 8.08929 12.2761C8.22561 12.597 8.26142 12.9501 8.19217 13.2909C8.12292 13.6316 7.95173 13.9446 7.70027 14.1903C7.44882 14.4359 7.12841 14.6031 6.77961 14.6708C6.4308 14.7384 6.0693 14.7035 5.74085 14.5703C5.41241 14.4371 5.13181 14.2117 4.93456 13.9227C4.73732 13.6336 4.6323 13.2939 4.63282 12.9465C4.63282 12.7163 4.67923 12.4884 4.7694 12.2757C4.85957 12.063 4.99173 11.8698 5.15835 11.707C5.32496 11.5443 5.52276 11.4152 5.74045 11.3271C5.95814 11.239 6.19146 11.1937 6.42709 11.1937ZM13.9792 18.7214L17.5755 12.6463L21.3906 22.0744H3.58594V20.9067L5.08073 20.8329L6.57813 17.2509L7.32553 19.8102H9.57032L11.5156 14.913L13.9844 18.7138L13.9792 18.7214ZM23.401 8.39524H1.4974V23.5397H23.401V8.39524Z" fill="white"/>
</svg>
