<svg width="24" height="20" viewBox="0 0 24 20" fill="none" xmlns="http://www.w3.org/2000/svg">
<path d="M23.4243 2.93708C22.5745 3.30708 21.6616 3.55708 20.7019 3.67008C21.6922 3.08787 22.433 2.17154 22.7862 1.09208C21.8559 1.63507 20.8376 2.01727 19.7758 2.22208C19.0618 1.47294 18.116 0.976403 17.0854 0.809551C16.0547 0.642699 14.9968 0.814868 14.0759 1.29933C13.1551 1.78379 12.4227 2.55344 11.9926 3.48878C11.5625 4.42412 11.4587 5.47283 11.6973 6.47208C9.81224 6.37907 7.96811 5.89763 6.28463 5.05898C4.60114 4.22034 3.11593 3.04324 1.92539 1.60408C1.51831 2.29408 1.28424 3.09408 1.28424 3.94608C1.28378 4.71307 1.47601 5.46832 1.84385 6.14481C2.21169 6.8213 2.74378 7.39812 3.39291 7.82408C2.64009 7.80054 1.90389 7.60066 1.24557 7.24108V7.30108C1.24549 8.37682 1.62418 9.41945 2.31739 10.2521C3.01059 11.0847 3.97562 11.656 5.04871 11.8691C4.35035 12.0548 3.61817 12.0821 2.90747 11.9491C3.21023 12.8747 3.79999 13.6841 4.59417 14.264C5.38835 14.8439 6.34721 15.1653 7.33649 15.1831C5.65712 16.4785 3.58311 17.1812 1.44809 17.1781C1.06989 17.1782 0.692015 17.1565 0.316406 17.1131C2.48357 18.4823 5.00631 19.2089 7.58278 19.2061C16.3045 19.2061 21.0724 12.1081 21.0724 5.95208C21.0724 5.75208 21.0673 5.55008 21.0581 5.35008C21.9856 4.69105 22.7861 3.87497 23.4222 2.94008L23.4243 2.93708Z" fill="white"/>
</svg>
